<?xml version="1.0" encoding="UTF-8"?>
<svg width="710px" height="312px" viewBox="0 0 710 312" version="1.1" xmlns="http://www.w3.org/2000/svg" xmlns:xlink="http://www.w3.org/1999/xlink">
    <!-- Generator: Sketch 52.6 (67491) - http://www.bohemiancoding.com/sketch -->
    <title>nätet (1)</title>
    <desc>Created with Sketch.</desc>
    <g id="Page-1" stroke="none" stroke-width="1" fill="none" fill-rule="evenodd">
        <g id="nätet-(1)">
            <g id="Group" transform="translate(354.700000, 155.800000) scale(-1, 1) rotate(-180.000000) translate(-354.700000, -155.800000) translate(0.200000, 0.300000)">
                <path d="M159.3,310 C155.5,308.2 154.2,306.7 152.3,301.2 C149.7,294 150.1,285.2 153.2,279.8 C156.6,274.1 160.1,272.3 167.5,272.4 C176.6,272.6 177.9,273.2 182.6,280.2 C186.2,285.6 186.8,287.2 186.8,291.7 C186.8,299.2 183.5,305.1 177.8,308 C172,310.8 163.3,311.8 159.3,310 Z" id="Path" fill="#A35938"></path>
                <path d="M226.1,310.1 C224.3,309.5 221.1,307.4 219,305.4 C215.7,302.3 214.8,300.5 212.8,292.9 C210.1,282.3 210.5,280.4 216.7,275.9 C220.8,272.9 221.4,272.8 230.7,272.8 C236.4,272.9 241.2,273.4 242.5,274.1 C243.7,274.8 245.9,277.4 247.4,279.9 C249.8,284 250,285.1 249.5,291.8 C248.9,300.3 247.2,304 242.5,307.6 C238.5,310.6 231,311.8 226.1,310.1 Z" id="Path" fill="#A35938"></path>
                <path d="M338.5,291.6 C337.1,290 333.2,286.1 329.9,282.9 C323,276.1 319.2,271 318.3,267.1 C317.6,264.5 317.9,264.3 322.2,263.2 C325.7,262.3 327.9,260.9 330.8,257.6 C335.1,252.7 336.2,247.8 335.6,237.3 L335.3,231.9 L331.3,231 C321.5,229 318.7,227.9 314.2,224.1 C311.5,221.9 307,218.8 304.2,217.2 C297.6,213.4 294.8,208.6 294.8,200.7 C294.8,197.4 295.2,194.2 295.6,193.5 C297.4,190.8 302.6,190.5 319.4,192.1 C335.1,193.6 336.1,193.5 337.3,191.9 C340.4,187.8 339.9,143.3 336.7,124.5 C335.2,116.2 336.1,111.5 339.4,110.3 C343,108.9 344.9,110.2 349.3,117.5 C354.3,125.6 355.9,127.2 363.2,130.8 C367.1,132.7 369.8,134.8 370.6,136.5 C372.8,141.1 374.8,158.4 374.8,172.8 C374.8,180.5 375.3,188.5 375.9,190.6 C376.8,194 377.6,194.7 384.5,197.9 C399.3,205 411.7,215.5 415.9,224.8 C418.1,229.5 418.3,233.9 416.6,234.5 C415.9,234.7 407.7,234.5 398.3,234 C387.1,233.4 380.4,233.5 378.7,234.1 C375.7,235.3 374.8,238.4 374.8,246.9 C374.8,253.4 373.1,266.6 371.6,271.2 C369.2,278.8 359.2,289.9 351.9,292.9 C346.4,295.2 341.5,294.7 338.5,291.6 Z" id="Path" fill="#086D67"></path>
                <path d="M623.2,285.3 C615.2,277.3 608.8,268.6 608.8,265.8 C608.8,265.2 611,264 613.7,263 C620.1,260.8 625.5,254.7 626.3,248.9 C626.7,246.7 626.8,241.9 626.6,238.3 L626.3,231.9 L622.3,231 C610.5,228.6 609.4,228.1 603.3,222.4 C602.2,221.4 598.7,219.1 595.4,217.3 C590.6,214.6 589.2,213.1 587.5,209.4 C583.7,200.8 585.5,192.2 591.4,191 C592.9,190.7 601.5,191.2 610.5,192.1 C625.8,193.5 627,193.5 628.6,191.9 C630.1,190.4 630.3,187.6 630.2,167 C630.1,151.3 629.6,139.5 628.4,130.5 C627.4,123.3 626.9,115.9 627.3,114.2 C628,111.1 631.5,108.9 634.2,109.9 C635,110.2 638.2,114.3 641.4,119 C646.7,126.8 647.7,127.8 653.4,130.3 C656.8,131.9 660.3,134.2 661.1,135.5 C663.7,139.6 665,149 665.6,170.1 C666.4,193.8 666.7,194.7 675,197.7 C681.1,199.8 694,208.6 699.5,214.3 C706.7,221.7 711.2,233.2 707.6,234.5 C706.9,234.8 700.5,234.6 693.3,234.1 C676.3,232.9 669,233.4 667.2,235.8 C666.3,237 665.8,240.3 665.8,244.7 C665.8,256.2 663.8,269.3 661.2,274.5 C658.1,280.6 648.3,290.6 643.4,292.7 C641.3,293.6 637.9,294.3 635.8,294.3 C632.5,294.3 631.2,293.4 623.2,285.3 Z" id="Path" fill="#086D67"></path>
                <path d="M16.3,264.4 C9.7,261.4 9.6,261.2 10.1,244.1 C10.3,235.7 11.1,220.9 11.8,211.3 C12.8,197.6 12.8,188.5 11.9,169.3 C11.3,155.8 10.8,138.5 10.8,130.7 C10.8,118.3 11,116.4 12.6,115 C16,111.9 27.5,113.5 37.3,118.4 C42.7,121.1 43.2,121.9 44.7,129.3 C49.3,153.7 52,162.5 59.5,178 C64.5,188.5 65,190.1 66.4,201.8 C69.1,225.3 74.1,231.9 85.2,226.7 C90.7,224 93.8,214.4 96.3,191.5 C97.5,180.9 97.5,177.2 96.3,165.5 C95.5,158 94.8,143.5 94.8,133.3 C94.8,119.9 94.3,112.6 93.1,106.7 C91,96.3 91.5,94.8 97.1,95.7 C103.3,96.7 108.9,100.5 113.7,106.7 C116,109.8 119.2,113.3 120.9,114.5 C126,118.3 128.9,124.5 131,136.2 C134.6,156.2 134.4,203.4 130.6,215.8 C127.6,225.6 117.6,237.7 101.3,251.2 C91.1,259.7 86.3,262.8 79.9,264.9 C66.9,269.1 52.6,261.9 42.4,245.9 C40.4,242.7 38.2,240.3 37.5,240.5 C35.9,241.1 28.6,252.2 24.8,260 C23.1,263.5 21.4,266.3 21,266.3 C20.6,266.3 18.5,265.4 16.3,264.4 Z" id="Path" fill="#086D67"></path>
                <path d="M478.8,252.2 C471.9,250.9 464.6,246.7 458.6,240.8 C450.5,232.7 448.2,228.9 445.3,217.8 C442,205.8 440,201.6 431.4,189.8 C423.5,179 421.8,174.4 421.8,164.2 C421.8,155.3 424.3,141 426.5,137.2 C427.3,135.8 430.6,132.4 433.7,129.7 C436.8,127 444.7,119.4 451.3,112.7 C457.9,106 464.7,99.6 466.4,98.4 C470.7,95.6 480,93.3 487.4,93.3 C490.9,93.3 496.7,92.7 500.5,91.9 C508.2,90.3 527.1,89.5 530.6,90.7 C535.2,92.2 544.5,98.4 545.7,100.7 C546.4,101.9 546.8,104.5 546.6,106.4 L546.3,109.8 L537.3,110.1 C532.4,110.3 528.1,110.8 527.8,111.2 C527.5,111.7 522.8,113.2 517.3,114.6 C511.8,115.9 504.4,118.4 500.8,120.1 C497.2,121.7 490.9,124.5 486.8,126.4 C477.3,130.6 471.5,135.1 469,140.5 C465.5,147.9 463.4,171.8 465.8,176.4 C467.1,178.8 468.4,178.8 478.3,176.2 C488.5,173.5 524.7,172.3 533.7,174.3 C545,176.8 555.2,184.1 560.1,193.2 C565,202.1 563.6,209 554.9,218.3 C552.6,220.8 548.7,225.8 546.3,229.4 C538.3,241.3 531.7,246.1 517,250.7 C509.8,253 507.1,253.3 496,253.2 C489,253.1 481.3,252.7 478.8,252.2 Z M527.7,216.9 C533.5,211.7 526,194 516,189.2 C512.1,187.3 510,187 500.4,187.1 C491,187.2 488,187.7 481.3,190.1 C470.8,193.7 470.4,195.4 478.1,202.8 C484.5,209.1 492.4,214.2 499.8,217.1 C507.2,220 524.4,219.9 527.7,216.9 Z" id="Shape" fill="#086D67" fill-rule="nonzero"></path>
                <path d="M190.4,249.6 C184.6,248.2 182.7,247.2 179.4,243.8 C177.1,241.5 172.8,237.8 169.7,235.5 C160.7,229 159.4,226.1 159,211.8 C158.8,205.2 159.1,194.9 159.6,189 C160.6,179.1 161.1,177.3 165.6,168 C170.8,157.2 172.9,150.4 174.9,138.3 C176.8,126.1 179.7,116.1 181.9,113.7 C185,110.4 192.2,109.1 211.8,108.6 C225.4,108.2 231.7,108.4 240.1,109.7 C250.3,111.3 251.2,111.7 258.7,116.9 C267.8,123.1 271.5,127.4 275.8,136.4 C278.2,141.6 278.8,144.1 278.8,149.8 C278.8,155.9 278.2,158 274.3,166.8 C269.2,178 263.5,184.8 255.3,189.1 C250.7,191.5 249.4,191.7 237.3,191.8 L224.3,191.8 L214.4,187.3 L204.5,182.9 L201.7,186.3 C197,191.8 195.8,195.5 195.8,203.6 C195.8,207.8 196.1,211.9 196.4,212.8 C197.3,215.1 204.2,218.3 209.6,218.9 C216.4,219.7 233,216.8 239,213.7 C251.3,207.5 257.9,212.6 255.2,226.3 C254.7,228.8 252.3,231.3 244.5,237.9 C229.8,250.2 228.3,250.8 211.3,251 C201.4,251.1 195.3,250.7 190.4,249.6 Z M224.8,174.3 C237.8,170.4 240.4,168.5 242.5,161.3 C244.2,155.5 244.8,143.6 243.4,141.5 C243,140.9 240.7,140.3 238.2,140.3 C235.7,140.3 229.5,139.8 224.4,139.2 C208.6,137.2 206.8,138.7 208.8,152 C209.9,159.2 209.8,160.9 208.3,165.7 C206.2,172.2 206.6,174.4 209.8,176 C213.2,177.7 213.1,177.7 224.8,174.3 Z" id="Shape" fill="#A35938" fill-rule="nonzero"></path>
                <path d="M115.8,69 C115.8,62.2 113.8,53.3 111.2,48.1 C107.8,41.3 106.8,27.2 109.3,18.8 C112,9.3 117.7,0.3 120.9,0.3 C122.7,0.3 125.8,4.4 125.8,6.8 C125.8,8.2 124.6,11.7 123.1,14.6 C120.5,19.3 120.3,20.7 120.3,30.3 C120.4,39.2 120.7,41.4 122.6,45.1 C125.2,50 126.4,57.4 125.4,62.5 C124.8,65.8 118.9,73.3 116.9,73.3 C116.3,73.3 115.8,71.4 115.8,69 Z" id="Path" fill="#086D67"></path>
                <path d="M354.6,71.9 C352.8,71 352.2,69.8 352,66.2 C351.7,61.1 352.7,59.7 357.5,58.7 C359.8,58.3 361.1,58.7 363.2,60.5 C365.7,62.6 365.8,63 364.7,66.3 C364,68.2 363.1,70.3 362.6,70.9 C361.3,72.7 357.1,73.2 354.6,71.9 Z" id="Path" fill="#086D67"></path>
                <path d="M375.1,72.1 C372.5,71.4 371.8,70.6 371.3,67.9 C370.1,61.8 375.9,56.7 380.9,59.3 C383.5,60.7 384.7,64 384.1,68 C383.5,71.8 380,73.4 375.1,72.1 Z" id="Path" fill="#086D67"></path>
                <path d="M502.3,72.3 C502,71.8 502.8,70.3 504.1,69.1 C506,67.4 506.8,65.1 507.6,59.9 C508.2,56.1 509.9,50.7 511.3,47.8 C514.3,41.5 514.6,38.3 511.9,38.3 C507.7,38.3 503,40.9 497.2,46.4 C491.3,52 486.8,54 482.3,53.1 C480.9,52.9 481.1,52.3 483.5,49.7 C485.7,47.5 486.7,45.2 487.2,41.5 C488,35.7 490.3,33.3 495.4,33.3 C497.1,33.3 499.1,32.6 499.8,31.8 C500.8,30.6 500.5,29.8 498.4,27.2 C497,25.5 495.8,23.5 495.8,22.8 C495.8,22.1 494.3,18.6 492.5,15.1 C490.6,11.6 488.8,7.1 488.4,5.1 L487.7,1.3 L492.2,1.3 C496,1.3 497,1.7 498.5,4.1 C501.8,8.9 505.6,17.7 506.3,22 C507,26.6 508.9,28.8 513.1,29.8 C515.6,30.5 515.8,30.3 515.8,27.7 C515.8,26.2 515.3,22.3 514.6,19.1 C513.6,14.2 513.6,12.9 515,10.1 L516.5,6.8 L520.3,10.8 C522.3,13 524.4,15.8 524.9,17.1 C525.4,18.4 525.8,24.9 525.8,31.6 C525.8,42 525.5,44.4 523.8,47.6 C522.7,49.7 521.1,54.3 520.4,57.8 C519.5,62 518.1,65.4 516.2,67.7 C512.5,72.1 503.9,75 502.3,72.3 Z" id="Path" fill="#A35938"></path>
                <path d="M593.2,71.8 C592.9,71 592.9,70 593.2,69.4 C594.4,67.6 591.6,53.8 589,48.3 C585.5,41 584.7,25.2 587.3,17.3 C591.1,5.7 596.7,-0.9 600.7,1.2 C604.2,3.1 604.2,7.2 600.6,14.9 C597.7,21 597.4,22.7 597.4,30.4 C597.5,37.4 597.9,39.9 600.1,44.7 C602.3,49.4 602.8,52 602.8,58.2 C602.8,65.5 602.7,65.9 599.2,69.6 C595.4,73.6 594,74.1 593.2,71.8 Z" id="Path" fill="#086D67"></path>
                <path d="M22.1,71.7 C21.4,71.4 20.4,69.5 19.7,67.5 C19.1,65.5 17.7,62.9 16.8,61.8 C14.7,59.5 13.2,54.3 12.3,45.8 C11.6,40 11.4,39.7 5.7,34.9 C2.4,32.2 -0.1,29.5 0.1,28.9 C0.3,28.3 2.3,27.9 4.6,28.1 L8.7,28.4 L8.1,14.2 L7.5,0 L11.4,0.7 C17.5,1.8 18.2,3.2 18.9,14.1 C19.3,19.4 20.1,25 20.8,26.6 C22,29 22.7,29.3 26.9,29.3 C31.2,29.3 31.9,29.6 33.2,32.1 C34,33.7 35.4,35.5 36.2,36.2 C39.4,38.8 37.9,39.5 30.7,38.8 L23.6,38.1 L24.3,48.4 C25.2,61.8 25.3,62.3 28.7,62.3 C32.3,62.3 33.8,60.6 33.8,56.6 C33.8,53 34,52.8 36.9,54.3 C38.4,55.1 38.8,56.4 38.8,60.1 C38.8,64.1 38.3,65.4 35.3,68.6 C32.4,71.8 31.3,72.3 27.6,72.2 C25.2,72.2 22.8,71.9 22.1,71.7 Z" id="Path" fill="#086D67"></path>
                <path d="M90.8,71.6 C87.8,70.6 81.8,66 81.8,64.8 C81.8,64.1 83.7,61.5 86.1,58.9 C92,52.7 95.4,52.8 102.6,59.6 C106.5,63.3 106.6,64.4 103.2,68.9 C100.9,71.8 100,72.3 96.4,72.2 C94.2,72.2 91.6,71.9 90.8,71.6 Z" id="Path" fill="#086D67"></path>
                <path d="M204.2,71.5 C203.6,71.1 202.8,69.6 202.5,68.2 C202.1,66.8 200.7,63.9 199.2,61.8 C197.3,59 196.2,55.3 195.1,48.9 C193.6,39.4 191.5,35.9 185.5,32.7 C181.3,30.4 182.3,27.8 187.3,27.8 C190.7,27.8 191.3,27.5 191,25.8 C189.9,17.3 189.7,1.5 190.6,0.9 C191.3,0.5 193.6,0.7 195.8,1.3 C200.3,2.5 200.4,2.7 201.2,14.6 C201.5,18.8 202.4,23.9 203.2,25.8 C204.6,29.1 205,29.3 209.1,29.3 C213.2,29.3 213.8,29.7 217.1,33.9 C219.1,36.5 220.6,38.9 220.3,39.3 C220.1,39.7 217.4,39.6 214.3,39.1 C206.2,37.7 206,37.9 206.5,46.5 C207.3,61.2 207.6,62.3 210.7,62.3 C214.3,62.3 215.8,60.6 215.8,56.6 C215.8,52.8 216.9,52.4 219.9,55.4 C223.1,58.6 221.9,64.8 217.3,69.1 C214.5,71.7 213,72.3 209.6,72.3 C207.2,72.3 204.8,71.9 204.2,71.5 Z" id="Path" fill="#086D67"></path>
                <path d="M326.4,70.1 C325.6,68.8 324.7,66.7 324.3,65.3 C323.9,63.9 322.7,61.8 321.5,60.6 C320.1,59 319.2,55.9 318.4,49.4 C317.3,40.8 317.1,40.2 313.3,36.5 C311,34.4 308.4,32.2 307.4,31.6 C306.2,31 305.7,29.9 306.1,29 C306.6,27.8 307.6,27.6 310.4,28 L314.1,28.6 L313.6,14.9 C313.4,7.4 313.5,1 313.9,0.7 C314.4,0.4 316.6,0.7 318.8,1.3 C323.3,2.5 323.4,2.8 324.2,13.8 C324.5,17.7 325.3,22.6 326.1,24.8 C327.4,28.6 327.7,28.8 332,29.1 C335.9,29.4 337,29.9 339.5,33.1 C344.7,39.7 344.8,39.5 336.7,39.1 L329.3,38.8 L329.6,42.8 C329.7,45 330.2,50.2 330.6,54.3 C331.3,61.6 331.4,61.8 334.2,62.1 C337.6,62.5 338.8,61.1 338.8,56.6 C338.8,52.9 339.4,52.6 342.7,54.9 C346.2,57.4 345.2,64.2 340.7,68.9 C337.9,71.8 336.8,72.3 332.6,72.3 C328.8,72.3 327.6,71.9 326.4,70.1 Z" id="Path" fill="#086D67"></path>
                <path d="M240.2,63.5 C237.3,61.1 234.3,56.3 235.7,56.3 C237.8,56.3 240.8,52.3 240.8,49.4 C240.8,47.1 240.2,46.3 237.8,45.5 C232.3,43.5 227.8,39.4 227.8,36.1 L227.8,33.2 L234.6,33.5 L241.3,33.8 L241.1,21.1 C241,11.5 241.3,8.3 242.2,8.3 C242.9,8.3 244.1,9.4 244.8,10.8 C245.6,12.2 247.3,13.9 248.7,14.6 C251.5,15.9 252.6,19.9 252.7,29 L252.8,34.2 L257.9,36.9 C262.4,39.4 265.8,43.4 265.8,46.2 C265.8,46.7 263.1,47.1 259.6,47 L253.4,46.8 L252.2,53.7 C251.3,59.2 250.5,61.2 248.4,63 C245.2,65.7 243,65.9 240.2,63.5 Z" id="Path" fill="#086D67"></path>
                <path d="M146.8,51.1 C144.9,48.9 142.1,45 140.6,42.4 C138.1,38.2 137.8,36.9 137.8,27.2 L137.8,16.6 L142.1,12.9 C147.3,8.4 148.9,7.9 158.8,8.5 C173.4,9.4 174.9,11.8 175.1,36.1 C175.2,47 174.9,53.7 174.3,53.9 C172.8,54.4 164.8,36.8 163.8,30.7 C162.8,24.5 161.5,21.7 158.8,20.3 C156,18.8 151.2,19.1 149.8,20.8 C147.9,23.1 149,37.1 151.3,40.6 C153.2,43.6 154.9,51.8 154.1,54 C153.2,56.3 150.3,55.2 146.8,51.1 Z" id="Path" fill="#086D67"></path>
                <path d="M51.3,50.3 L48.3,47.2 L48,31.5 L47.8,15.8 L51.8,11.5 C54.1,9.2 56.3,7.5 56.9,7.8 C57.4,8.2 57.8,13.1 57.8,18.9 C57.8,24.7 58.2,30.3 58.8,31.3 C59.3,32.3 62.1,33.9 65,34.9 C73.5,37.7 76.3,40.4 77.5,46.8 C78,49.8 78.2,52.5 78,52.8 C77.7,53.1 75.8,53.3 73.7,53.3 C70.6,53.3 68.8,52.4 63.8,48.3 C57.5,42.9 57.1,43 56.6,49.2 C56.2,53.7 54.8,54 51.3,50.3 Z" id="Path" fill="#086D67"></path>
                <path d="M284.2,52.4 C279.3,51.2 274.9,47.3 274.2,43.7 C273.2,38.4 274.6,34.9 279.8,29.8 C282.7,26.9 284.8,24 284.8,22.7 C284.8,20.1 277,12.6 273.4,11.7 C270.5,11 270,9.8 272.4,8.9 C275.4,7.7 287.6,8.3 291.1,9.8 C295.4,11.6 298.8,16.8 298.8,21.8 C298.8,25.5 298.6,25.8 289.4,34.2 C285,38.2 285.9,39.9 293.7,42.3 C297.4,43.4 301,44.3 301.6,44.3 C302.3,44.3 303.5,45.4 304.3,46.7 C305.6,48.6 305.7,49.6 304.8,51.2 C303.8,53.1 302.9,53.3 295.5,53.2 C291,53.1 285.9,52.8 284.2,52.4 Z" id="Path" fill="#086D67"></path>
                <path d="M360.3,51.9 C358.7,51.2 356.2,49.3 354.8,47.8 C352.5,45.3 352.3,44.5 352.3,34.4 C352.3,24.3 352.5,23.4 355,19.7 C364.8,5.6 376.6,5.8 387.3,20.2 C389.4,23.1 389.8,24.8 389.8,30.3 C389.8,36.1 389.4,37.5 386.9,41 C379.1,51.8 369.2,55.8 360.3,51.9 Z M368,42.1 C372.1,38.8 378.8,30 378.8,27.8 C378.8,24.3 375.6,19.3 372.9,18.6 C368.2,17.4 365.4,19.4 363.5,25.3 C361.1,32.7 362.4,43.3 365.7,43.3 C366.1,43.3 367.1,42.7 368,42.1 Z" id="Shape" fill="#086D67" fill-rule="nonzero"></path>
                <path d="M408.1,51.1 C404.2,46.8 403.8,44.7 403.8,30.7 L403.8,17 L407.3,13.2 C409.2,11 410.8,8.8 410.8,8.3 C410.8,7.7 411.5,7.3 412.3,7.3 C413.5,7.3 413.8,8.8 414,14.1 C414.1,17.8 414.1,22.4 413.9,24.4 C413.5,30.7 415.1,33 421.3,34.9 C429.5,37.5 432.7,40.7 433.7,47 C434.1,49.9 434.3,52.5 434,52.8 C433.7,53.1 431.8,53.3 429.7,53.3 C426.6,53.3 424.8,52.4 419.9,48.3 C413.3,42.8 413.4,42.8 412.6,50.2 C412.2,53.5 410.6,53.8 408.1,51.1 Z" id="Path" fill="#086D67"></path>
                <path d="M451.3,52.2 C445.7,50.5 441.8,45.8 441.8,40.8 C441.8,37.2 443.9,33.5 448.7,28.8 C451,26.6 452.8,24 452.8,22.7 C452.8,20.1 445,12.6 441.4,11.7 C438.5,11 438,9.8 440.4,8.9 C443.4,7.7 455.6,8.3 459.1,9.8 C463.5,11.6 466.8,16.8 466.8,21.9 C466.8,25.2 466.1,26.3 460.8,31.2 C457.5,34.3 454.8,37.6 454.8,38.5 C454.8,39.8 456.4,40.7 460.6,41.8 C463.7,42.7 467.4,43.8 468.8,44.2 C472,45.2 474,49 472.7,51.5 C471.9,53 470.5,53.3 463,53.2 C458.2,53.2 453,52.7 451.3,52.2 Z" id="Path" fill="#086D67"></path>
                <path d="M547.8,52.5 C542.3,49.9 539.8,46.8 538.7,41.4 C537.4,35 538.1,25.5 540.2,21.4 C542.1,17.8 549.2,11.5 553.3,9.7 C558.3,7.7 563.3,9.5 569.4,15.7 C578.4,24.6 579.1,33.8 571.7,42.9 C565.6,50.2 562,52.4 555.2,52.9 C551.9,53.1 548.6,52.9 547.8,52.5 Z M554.3,42.5 C554.9,42.1 557.4,39.5 560.1,36.6 C564,32.2 564.8,30.7 564.8,27.5 C564.8,22.1 561.7,18.3 557.4,18.3 C555.6,18.3 553.5,18.9 552.6,19.6 C550.4,21.2 548.8,27.5 548.8,34.1 C548.8,41.6 551,45 554.3,42.5 Z" id="Shape" fill="#086D67" fill-rule="nonzero"></path>
                <path d="M626.3,51.9 C622.6,50.2 617.8,45.7 617.8,43.9 C617.8,41.1 620.2,40.3 624.3,41.8 C626.5,42.6 629.5,43.2 631,43.3 C635.8,43.3 636.8,42.4 636.8,37.8 C636.8,32.3 635.1,30.8 631.2,32.8 C627.5,34.7 621.5,34.7 617.9,32.8 C616.2,32 614.2,29.5 612.8,26.6 C610.8,22.4 610.7,21.5 611.9,18 C614,11.7 618.2,9.2 628,8.6 C637.9,8 641.5,9.1 642.3,13 C642.6,14.5 644,19.4 645.4,23.8 C646.9,28.2 648.2,34.6 648.5,38 L649.1,44.3 L644.8,48.2 C639.1,53.4 632.6,54.7 626.3,51.9 Z M633.8,29.3 C633.8,27.3 633.466667,26.3 632.8,26.3 C631.8,26.3 633.8,18.3 632.8,17.3 C631.8,16.3 623.3,16.8 622.3,18.8 C621.3,20.8 621.3,20.3 622.3,25.3 C622.966667,28.6333333 626.8,29.9666667 633.8,29.3 Z" id="Combined-Shape" fill="#086D67"></path>
                <path d="M664.1,52.1 C663.2,50.5 663.7,7.1 664.7,6 C665.1,5.6 667.2,5.9 669.4,6.6 C673.1,7.9 673.4,8.2 674.5,14.2 C675.2,17.6 676.7,22.2 677.8,24.4 C679,26.6 680.2,30.7 680.5,33.4 C681.3,39.9 683.6,43 686.5,41.4 C687.7,40.8 689,38.9 689.4,37.1 C690.2,33.5 690.1,4.9 689.2,2.1 C688.2,-1.1 691.7,0.1 695.8,4.2 C700.8,9.2 701.3,11.2 701.3,25.4 C701.3,38.8 700.7,40.5 693.5,47.3 C688,52.4 686.6,53.1 682.2,53.2 C679.9,53.3 678.2,52.4 675.9,50.1 C674.2,48.4 672.8,46.6 672.8,46.1 C672.8,44.2 671.1,45.6 669,49.3 C666.6,53.5 665.4,54.1 664.1,52.1 Z" id="Path" fill="#086D67"></path>
                <path d="M91,44.7 C89.8,43.2 88.4,41.3 87.9,40.4 C86.6,38 85.6,16.5 86.5,11.3 C87.2,7.5 87.7,6.8 89.8,6.5 C91.2,6.3 93.2,6.9 94.3,7.7 C96.1,9 96.3,10.1 96,21.2 C95.8,29.8 96.1,35.1 97.2,39.4 C99.3,47.3 99.3,47.3 96.1,47.3 C94.4,47.3 92.4,46.3 91,44.7 Z" id="Path" fill="#086D67"></path>
            </g>
        </g>
    </g>
</svg>